#!OML:ASF H:\Terrain\Patient Classification 1\Takeo\Monday\TakeoMonday.ASF
:FULLY-SPECIFIED
:DEGREES
82
root 9.66438 16.7861 -16.0935 -3.68613 3.74614 0.0795299
lowerback 4.16292 -2.51364 -0.206906
upperback 2.67164 -3.35543 2.33951
thorax 0.566307 -1.70122 2.6341
lowerneck -13.7997 3.32505 -1.07444
upperneck -2.22673 4.65011 -3.65317
head 1.70504 2.21213 -0.7177
rclavicle 7.50412e-015 0
rhumerus -47.9285 -19.9469 -68.9409
rradius 13.39
rwrist 7.38063
rhand -18.5421 14.9805
rfingers 7.12502
rthumb 7.7471 -14.8576
lclavicle 7.50412e-015 0
lhumerus -30.1967 -3.51577 92.8179
lradius 55.5858
lwrist 23.0972
lhand -22.7369 16.4782
lfingers 7.12502
lthumb 3.69715 46.4259
rfemur -25.9358 6.67658 22.0418
rtibia 33.5977
rfoot -8.21445 -11.1499
rtoes -3.68246
lfemur 18.4642 -2.66154 -26.5598
ltibia 27.576
lfoot -8.27747 3.14312
ltoes -18.4366
83
root 9.66025 16.7926 -15.8951 -3.90039 3.37816 0.282076
lowerback 4.28987 -2.38042 -0.399599
upperback 2.61918 -3.18233 2.34155
thorax 0.444145 -1.61588 2.74599
lowerneck -13.7846 3.28965 -1.21694
upperneck -2.1145 4.62785 -3.6218
head 1.73462 2.20059 -0.684009
rclavicle -2.58917e-014 5.56597e-015
rhumerus -47.8166 -20.0304 -68.784
rradius 13.4561
rwrist 7.2441
rhand -18.4205 15.0611
rfingers 7.12502
rthumb 7.86449 -14.7726
lclavicle -2.58917e-014 5.56597e-015
lhumerus -30.5937 -2.7491 92.8879
lradius 54.0732
lwrist 22.6603
lhand -22.6149 17.0204
lfingers 7.12502
lthumb 3.81498 46.966
rfemur -25.4761 7.07439 22.0446
rtibia 34.4529
rfoot -8.38247 -11.2658
rtoes -1.99296
lfemur 17.8607 -2.14017 -26.5856
ltibia 30.053
lfoot -6.33014 3.14558
ltoes -21.7993
84
root 9.64702 16.7965 -15.7074 -4.08637 3.11977 0.452501
lowerback 4.465 -2.26951 -0.655561
upperback 2.56741 -3.04156 2.3804
thorax 0.301999 -1.54726 2.93402
lowerneck -13.9836 3.26439 -1.25483
upperneck -1.75235 4.62151 -3.72454
head 1.89351 2.18511 -0.704673
rclavicle 9.79014e-015 8.74653e-015
rhumerus -47.6515 -20.1832 -68.5576
rradius 13.475
rwrist 7.39602
rhand -18.5361 15.4105
rfingers 7.12502
rthumb 7.75292 -14.4273
lclavicle 9.79014e-015 8.74653e-015
lhumerus -30.8834 -1.97293 92.9859
lradius 52.3651
lwrist 22.4562
lhand -22.2841 16.9783
lfingers 7.12502
lthumb 4.13442 46.9179
rfemur -24.9264 7.56647 22.085
rtibia 35.1361
rfoot -8.80402 -11.3283
rtoes -0.708407
lfemur 17.0379 -1.56728 -26.4066
ltibia 32.6428
lfoot -4.17675 2.7819
ltoes -23.1228
85
root 9.62626 16.8049 -15.5261 -4.15011 3.01815 -0.155061
lowerback 4.48426 -2.25558 -0.131383
upperback 2.49789 -3.00109 2.55393
thorax 0.199689 -1.5211 2.82039
lowerneck -13.7466 3.27925 -1.18706
upperneck -1.89529 4.61786 -3.65386
head 1.80301 2.19075 -0.698681
rclavicle 2.89232e-014 -3.26007e-014
rhumerus -47.4648 -20.2607 -68.601
rradius 13.5903
rwrist 7.35455
rhand -18.5858 15.8786
rfingers 7.12502
rthumb 7.70493 -13.961
lclavicle 2.89232e-014 -3.26007e-014
lhumerus -31.2272 -1.35997 92.899
lradius 50.5412
lwrist 22.4027
lhand -21.9699 17.0516
lfingers 7.12502
lthumb 4.43784 46.9851
rfemur -24.4135 7.81877 22.9951
rtibia 35.6741
rfoot -9.68699 -11.1851
rtoes -0.822071
lfemur 15.9357 -1.19552 -25.2394
ltibia 35.3453
lfoot -1.72127 2.22673
ltoes -22.3472
86
root 9.6095 16.8229 -15.3408 -4.12541 3.06347 -0.78923
lowerback 4.35629 -2.29837 0.524732
upperback 2.43551 -3.03375 2.64213
thorax 0.178981 -1.53051 2.54105
lowerneck -13.6615 3.28279 -0.975711
upperneck -1.99405 4.58253 -3.57379
head 1.75796 2.17754 -0.713354
rclavicle 4.27884e-014 -2.22639e-014
rhumerus -47.1249 -20.4068 -68.8431
rradius 13.5747
rwrist 7.39498
rhand -18.7181 16.5914
rfingers 7.12502
rthumb 7.57724 -13.2529
lclavicle 4.27884e-014 -2.22639e-014
lhumerus -31.5657 -0.852853 92.6464
lradius 48.8015
lwrist 22.3701
lhand -21.5508 17.9175
lfingers 7.12502
lthumb 4.8425 47.8421
rfemur -23.9451 7.4997 23.9406
rtibia 36.0959
rfoot -10.4307 -10.8087
rtoes -0.980823
lfemur 14.6605 -1.09736 -24.1381
ltibia 38.1299
lfoot 1.0638 1.958
ltoes -22.8527
87
root 9.59603 16.8363 -15.1582 -3.90706 3.20153 -0.757792
lowerback 3.96475 -2.33604 0.531766
upperback 2.411 -3.092 2.55562
thorax 0.369 -1.55953 2.43266
lowerneck -13.9295 3.27023 -0.811
upperneck -1.8288 4.54984 -3.52575
head 1.8638 2.15629 -0.722755
rclavicle -2.03257e-014 2.94201e-014
rhumerus -46.5145 -20.531 -69.2862
rradius 13.578
rwrist 7.42625
rhand -19.0983 17.0565
rfingers 7.12502
rthumb 7.21025 -12.8006
lclavicle -2.03257e-014 2.94201e-014
lhumerus -31.6152 -0.197137 92.3863
lradius 46.9172
lwrist 22.1308
lhand -21.4798 18.4403
lfingers 7.12502
lthumb 4.91103 48.3634
rfemur -23.6594 7.24774 24.082
rtibia 36.4342
rfoot -11.0684 -10.6945
rtoes -0.14082
lfemur 13.094 -1.07343 -23.8385
ltibia 40.9323
lfoot 3.93859 1.82719
ltoes -24.8846
88
root 9.58144 16.8366 -14.9914 -3.75028 3.31092 -0.530448
lowerback 3.86788 -2.34152 0.205026
upperback 2.35999 -3.11074 2.54201
thorax 0.38806 -1.57236 2.59872
lowerneck -14.1362 3.30901 -0.903801
upperneck -1.73251 4.61681 -3.33625
head 1.92542 2.19207 -0.638329
rclavicle 1.54555e-014 1.66979e-014
rhumerus -45.8321 -20.3578 -69.7517
rradius 13.7905
rwrist 7.00984
rhand -19.1122 17.1403
rfingers 7.12502
rthumb 7.19685 -12.7174
lclavicle 1.54555e-014 1.66979e-014
lhumerus -31.5952 0.799697 92.2147
lradius 44.9239
lwrist 21.6213
lhand -21.2382 18.5361
lfingers 7.12502
lthumb 5.14433 48.4537
rfemur -23.3193 7.35628 23.9859
rtibia 36.7136
rfoot -11.7677 -10.8619
rtoes 0.651501
lfemur 11.5063 -1.01074 -23.7914
ltibia 43.7537
lfoot 6.48191 1.23363
ltoes -29.5634
89
root 9.56538 16.8499 -14.8327 -3.90736 3.30206 -0.524711
lowerback 4.28473 -2.28317 0.0376132
upperback 2.32439 -3.0305 2.59922
thorax 0.127583 -1.53265 2.76892
lowerneck -14.4883 3.34787 -0.748804
upperneck -1.36268 4.66335 -3.37054
head 2.11976 2.20391 -0.66449
rclavicle 8.44835e-016 -1.43125e-014
rhumerus -45.2079 -20.0851 -70.193
rradius 14.0802
rwrist 6.33459
rhand -18.8029 16.4433
rfingers 7.12502
rthumb 7.49542 -13.4039
lclavicle 8.44835e-016 -1.43125e-014
lhumerus -31.8008 1.5807 92.0972
lradius 43.1431
lwrist 21.4097
lhand -21.029 19.541
lfingers 7.12502
lthumb 5.34639 49.4535
rfemur -22.5382 7.37155 24.1866
rtibia 36.8766
rfoot -12.6203 -10.705
rtoes 1.4202
lfemur 10.142 -0.914165 -23.5236
ltibia 46.6498
lfoot 9.00843 1.0416
ltoes -30.7474
90
root 9.5494 16.8911 -14.6687 -4.04634 3.28379 -0.697483
lowerback 4.60283 -2.21567 0.119407
upperback 2.29505 -2.93102 2.60557
thorax -0.0883729 -1.4805 2.74106
lowerneck -14.6716 3.21587 -0.446807
upperneck -1.12935 4.45628 -3.54567
head 2.24372 2.08883 -0.782055
rclavicle -2.43511e-015 -3.18055e-015
rhumerus -44.622 -19.907 -70.8086
rradius 14.4159
rwrist 5.60963
rhand -18.5381 16.0559
rfingers 7.12502
rthumb 7.75098 -13.782
lclavicle -2.43511e-015 -3.18055e-015
lhumerus -32.0111 2.13089 91.8828
lradius 41.3259
lwrist 21.5991
lhand -21.2568 20.6734
lfingers 7.12502
lthumb 5.1264 50.5914
rfemur -21.6221 7.10647 24.5877
rtibia 36.8351
rfoot -13.4432 -10.2881
rtoes 2.50155
lfemur 8.54086 -0.923795 -23.0723
ltibia 49.6646
lfoot 12.1699 2.95166
ltoes -24.5973
91
root 9.53675 16.9286 -14.5041 -3.97663 3.40307 -0.984316
lowerback 4.66471 -2.23761 0.408979
upperback 2.23043 -2.94512 2.62878
thorax -0.202065 -1.48418 2.60802
lowerneck -14.5501 3.02898 -0.552874
upperneck -1.38803 4.20909 -3.37279
head 2.12212 1.97742 -0.727144
rclavicle 1.05356e-014 -1.98785e-014
rhumerus -43.9353 -19.553 -71.6205
rradius 14.7993
rwrist 4.72648
rhand -18.4491 16.241
rfingers 7.12502
rthumb 7.83691 -13.5937
lclavicle 1.05356e-014 -1.98785e-014
lhumerus -31.9722 3.03798 91.4848
lradius 39.1885
lwrist 21.4404
lhand -21.1967 20.8072
lfingers 7.12502
lthumb 5.18439 50.7238
rfemur -20.8987 6.57139 25.0767
rtibia 36.5564
rfoot -13.9517 -10.0017
rtoes 3.2233
lfemur 6.54088 -0.913698 -22.5119
ltibia 52.7373
lfoot 14.9746 4.16481
ltoes -23.7415
92
root 9.52693 16.946 -14.3452 -3.87238 3.58566 -1.21321
lowerback 4.66207 -2.27245 0.66341
upperback 2.22297 -2.98022 2.66912
thorax -0.217601 -1.49978 2.50888
lowerneck -14.7627 2.96046 -0.845674
upperneck -1.36984 4.15453 -2.92696
head 2.14578 1.9638 -0.533437
rclavicle 7.70291e-015 -1.11319e-014
rhumerus -43.0658 -19.3505 -72.263
rradius 15.1154
rwrist 3.96258
rhand -18.7742 15.4368
rfingers 7.12502
rthumb 7.52308 -14.4094
lclavicle 7.70291e-015 -1.11319e-014
lhumerus -31.6758 4.038 91.0699
lradius 36.9143
lwrist 20.8606
lhand -20.6736 21.232
lfingers 7.12502
lthumb 5.68952 51.1356
rfemur -20.2121 5.96004 25.4686
rtibia 36.1346
rfoot -14.3274 -9.77663
rtoes 3.09275
lfemur 4.50309 -0.80021 -22.0451
ltibia 55.7542
lfoot 16.7469 4.03976
ltoes -27.4394
93
root 9.51932 16.9619 -14.1917 -3.92326 3.61288 -1.62009
lowerback 4.76711 -2.21779 1.1592
upperback 2.29002 -2.88467 2.71142
thorax -0.233101 -1.44833 2.27386
lowerneck -14.9162 2.88871 -0.919645
upperneck -1.33726 4.06621 -2.66313
head 2.17489 1.92762 -0.438987
rclavicle 2.49475e-014 -1.11319e-014
rhumerus -42.1427 -19.3702 -72.8343
rradius 15.3084
rwrist 3.53825
rhand -19.1549 14.7771
rfingers 7.12502
rthumb 7.15561 -15.0819
lclavicle 2.49475e-014 -1.11319e-014
lhumerus -31.4599 5.00675 90.6168
lradius 34.9054
lwrist 20.2553
lhand -20.3181 22.0808
lfingers 7.12502
lthumb 6.03276 51.9749
rfemur -19.3451 5.46684 26.0616
rtibia 35.6874
rfoot -14.5771 -9.48978
rtoes 2.67205
lfemur 2.71483 -0.545517 -21.4033
ltibia 58.5725
lfoot 17.288 5.75769
ltoes -25.6997
94
root 9.51164 16.98 -14.0423 -4.04473 3.44191 -2.07319
lowerback 5.02885 -2.12714 1.68066
upperback 2.28599 -2.7311 2.76871
thorax -0.409012 -1.36767 2.04539
lowerneck -14.7307 2.74329 -0.891551
upperneck -1.54763 3.8621 -2.71407
head 2.07032 1.82905 -0.477388
rclavicle 1.90833e-014 5.56597e-015
rhumerus -41.2903 -18.8226 -73.7296
rradius 15.5545
rwrist 2.72657
rhand -19.6049 15.9447
rfingers 7.12502
rthumb 6.72128 -13.9286
lclavicle 1.90833e-014 5.56597e-015
lhumerus -31.5574 6.0452 90.0917
lradius 33.0471
lwrist 19.7652
lhand -20.4728 22.7109
lfingers 7.12502
lthumb 5.88339 52.6093
rfemur -18.4048 5.07431 26.7143
rtibia 35.2683
rfoot -14.6768 -9.12005
rtoes 2.49898
lfemur 1.0825 -0.0642193 -20.7178
ltibia 61.113
lfoot 16.6279 8.08212
ltoes -22.4811
95
root 9.50412 16.9964 -13.8907 -4.1713 3.21197 -2.20966
lowerback 5.22205 -2.03372 1.82617
upperback 2.33224 -2.59408 2.77318
thorax -0.478285 -1.29822 1.96828
lowerneck -14.764 2.68123 -1.03156
upperneck -1.48635 3.80029 -2.55674
head 2.08949 1.80288 -0.405719
rclavicle 2.52457e-014 -2.38542e-015
rhumerus -40.373 -17.8094 -74.8699
rradius 16.0254
rwrist 1.29953
rhand -20.2493 17.5722
rfingers 7.12502
rthumb 6.09917 -12.32
lclavicle 2.52457e-014 -2.38542e-015
lhumerus -31.5652 6.847 89.6074
lradius 31.0813
lwrist 19.3799
lhand -19.9892 22.7547
lfingers 7.12502
lthumb 6.35027 52.6395
rfemur -17.4565 4.71795 26.9986
rtibia 34.8774
rfoot -14.9467 -8.64437
rtoes 2.37681
lfemur -0.453843 0.487708 -20.4237
ltibia 63.3399
lfoot 15.38 9.78697
ltoes -20.8765
96
root 9.49973 17.0205 -13.736 -4.26307 3.09525 -2.18056
lowerback 5.24541 -1.9573 1.86455
upperback 2.493 -2.49561 2.70265
thorax -0.332814 -1.24805 1.86605
lowerneck -15.1097 2.66547 -1.19768
upperneck -1.22365 3.8111 -2.28403
head 2.23112 1.81175 -0.281721
rclavicle -3.73218e-014 3.33958e-014
rhumerus -39.2492 -16.8455 -76.0445
rradius 16.6112
rwrist -0.00147448
rhand -20.7852 17.5109
rfingers 7.12502
rthumb 5.58176 -12.3956
lclavicle -3.73218e-014 3.33958e-014
lhumerus -31.3053 8.0351 88.9237
lradius 29.0263
lwrist 18.3338
lhand -18.9911 22.1141
lfingers 7.12502
lthumb 7.31372 51.9677
rfemur -16.567 4.34713 27.0685
rtibia 34.536
rfoot -15.3609 -8.21254
rtoes 1.65524
lfemur -2.00098 0.790769 -20.4076
ltibia 65.2443
lfoot 13.6996 11.548
ltoes -18.9155
